ply
format ascii 1.0
element vertex 11
property float32 x
property float32 y
property float32 z
element face 0
property list uint8 int32 vertex_indices
end_header
       
0.03537857 -334209.52301781 730261.13047553 
0.03537857 -798071.85207678 113762.38363843 
0.03537857 -532900.67996523 -617003.74864231 
0.03537857 233869.94886427 -790600.87164579 
0.03537857 800500.93747245 -232950.72901378 
0.03537857 452124.41941465 704142.06330149 
0.03628571 -350811.61583498 766537.36509462 
0.03628571 -840724.50347372 119842.37164802 
0.03628571 -557128.85613208 -645055.64664080 
0.03628571 245334.32810252 -829356.37769798 
0.03628571 833457.56429767 -242541.31146707